<svg xmlns="http://www.w3.org/2000/svg" viewBox="0 0 800 600">
  <rect width="800" height="600" fill="#242b30"/>
  <circle cx="400" cy="245" r="175" fill="#303b42"/>
  <path d="M120 600c18-111 76-192 167-223l58-17h110l58 17c91 31 149 112 167 223Z" fill="#10171c"/>
  <path d="M357 305h86v77c-20 28-66 28-86 0Z" fill="#10171c"/>
  <ellipse cx="400" cy="235" rx="82" ry="108" fill="#10171c"/>
  <path d="M316 230c-16-118 49-148 92-137 72-5 99 70 73 143l-18-64-48-19-69 25Z" fill="#10171c"/>
  <path d="m290 389 65-34 45 56 45-56 65 34-40 104H330Z" fill="#1a252c"/>
</svg>
